<svg width="35" height="35" viewBox="0 0 35 35" fill="none" xmlns="http://www.w3.org/2000/svg">
<g clip-path="url(#clip0_235_125)">
<path d="M22.9578 14.8316L25.7534 13.5049C25.9066 13.4324 26.0397 13.3248 26.1413 13.1911C26.243 13.0575 26.3102 12.9018 26.3373 12.7372C26.3643 12.5727 26.3504 12.4042 26.2968 12.246C26.2431 12.0879 26.1513 11.9447 26.0291 11.8288C25.4778 11.3058 24.5372 11.5309 23.9903 12.0581C23.4872 12.5425 22.8681 12.8576 22.2053 13.1941L21.9822 13.3098C21.2428 13.6913 21.4047 14.6515 22.2009 14.8873C22.4517 14.962 22.7219 14.9413 22.9578 14.8294V14.8316ZM16.9334 21.0214V20.9614C16.9333 20.8279 16.9639 20.6961 17.0231 20.5759C17.0822 20.4557 17.1683 20.3501 17.275 20.2671C17.3817 20.1841 17.5061 20.1259 17.639 20.0966C17.7719 20.0674 17.9098 20.068 18.0425 20.0984C18.1751 20.1287 18.299 20.1881 18.4049 20.272C18.5108 20.3559 18.596 20.4622 18.6541 20.583C18.7122 20.7037 18.7416 20.8357 18.7403 20.9691C18.7389 21.1026 18.7068 21.234 18.6462 21.3536L18.165 22.3031C18.0991 22.4362 18.0103 22.5573 17.9025 22.661L17.4803 23.0575C17.408 23.1356 17.32 23.1984 17.2219 23.2419C17.1238 23.2855 17.0177 23.3088 16.91 23.3105C16.8023 23.3123 16.6954 23.2924 16.5959 23.252C16.4964 23.2117 16.4064 23.1518 16.3315 23.076C16.2566 23.0002 16.1983 22.9102 16.1603 22.8115C16.1223 22.7128 16.1053 22.6075 16.1105 22.5021C16.1156 22.3967 16.1428 22.2935 16.1903 22.1988C16.2378 22.1041 16.3046 22.02 16.3866 21.9516L16.6316 21.7201C16.7272 21.6294 16.8032 21.5209 16.855 21.4008C16.9069 21.2808 16.9336 21.1517 16.9334 21.0214ZM12.4075 26.7911L13.4619 27.2905C13.5763 27.3451 13.7019 27.3737 13.8292 27.3741C13.9564 27.3744 14.0822 27.3466 14.1969 27.2926C14.3117 27.2387 14.4125 27.16 14.4919 27.0625C14.5713 26.965 14.6271 26.8511 14.6552 26.7295C14.6833 26.6078 14.683 26.4815 14.6543 26.36C14.6255 26.2385 14.5691 26.125 14.4893 26.0278C14.4094 25.9307 14.3082 25.8525 14.1932 25.7991C14.0782 25.7457 13.9523 25.7185 13.825 25.7195H12.915C12.5847 25.7193 12.2633 25.6148 11.9984 25.4215L11.3925 24.98C11.3176 24.9249 11.2316 24.8859 11.1402 24.8658C11.0488 24.8457 10.9541 24.8449 10.8624 24.8634C10.7706 24.8819 10.6839 24.9193 10.6081 24.9731C10.5322 25.0269 10.4689 25.0959 10.4223 25.1755C10.3757 25.2552 10.347 25.3436 10.3379 25.4349C10.3289 25.5263 10.3398 25.6185 10.3699 25.7054C10.4 25.7923 10.4486 25.8719 10.5125 25.939C10.5764 26.0061 10.6542 26.0591 10.7406 26.0945L12.4053 26.7911H12.4075Z" fill="white"/>
<path d="M17.5 0C12.8587 0 8.40752 1.80648 5.12563 5.02204C1.84374 8.2376 0 12.5988 0 17.1463C0 21.6938 1.84374 26.055 5.12563 29.2706C8.40752 32.4862 12.8587 34.2926 17.5 34.2926C22.1413 34.2926 26.5925 32.4862 29.8744 29.2706C33.1563 26.055 35 21.6938 35 17.1463C35 12.5988 33.1563 8.2376 29.8744 5.02204C26.5925 1.80648 22.1413 0 17.5 0V0ZM3.52625 23.2911L5.18 20.5306C5.34591 20.2534 5.5733 20.0164 5.84534 19.837C6.11738 19.6575 6.42711 19.5404 6.75162 19.494C7.07613 19.4477 7.4071 19.4735 7.72007 19.5695C8.03304 19.6654 8.31999 19.8291 8.55969 20.0483L10.9091 22.2023C11.3132 22.5734 11.8475 22.7779 12.4014 22.7736C12.9552 22.7692 13.4861 22.5562 13.8841 22.1788L13.9672 22.0995C14.1852 21.8926 14.3503 21.6382 14.4492 21.357C14.548 21.0759 14.5777 20.7758 14.5359 20.4813C14.3719 19.3068 15.3453 18.2673 16.5484 18.1258C18.1409 17.9415 20.02 17.4314 20.3284 16.0747C20.5166 15.2474 20.0791 14.2957 19.5387 13.5027C19.0859 12.834 19.5387 11.7881 20.3569 11.7881C20.6259 11.7881 20.8819 11.6702 21.0525 11.4666L21.9122 10.4507C22.3409 9.94272 22.9862 9.66195 23.6556 9.58694C24.8675 9.44977 26.7334 8.99325 27.1184 7.50152C27.3328 6.66349 26.6984 6.14267 26.0597 5.61542C25.5041 5.16104 24.9441 4.70238 24.9331 4.02724C27.8389 5.60624 30.1414 8.0687 31.493 11.0428C32.8446 14.0169 33.1718 17.3411 32.4253 20.5134C32.3644 20.4652 32.3008 20.4201 32.235 20.3784L31.5438 19.9412C31.2286 19.7421 30.8666 19.6257 30.4923 19.6032C30.1181 19.5806 29.7442 19.6527 29.4066 19.8126L29.0369 19.9883C28.5309 20.2273 27.9505 20.2664 27.4159 20.0976L25.1825 19.3925C24.9655 19.3241 24.7389 19.2894 24.5109 19.2896H24.15C23.6949 19.2898 23.2511 19.429 22.8806 19.688C22.5101 19.9469 22.2312 20.3126 22.0828 20.7342L21.7066 21.8037C21.5463 22.2576 21.2351 22.6455 20.8228 22.9053L19.0684 24.0156C18.7612 24.2097 18.5085 24.4762 18.3335 24.7907C18.1585 25.1052 18.0667 25.4577 18.0666 25.8159V26.7911C18.0666 27.3596 18.297 27.9047 18.7073 28.3067C19.1175 28.7086 19.6739 28.9344 20.2541 28.9344H20.8162C21.2369 28.9347 21.6485 29.0537 22.0019 29.2773L23.6687 30.3276C23.8595 30.4486 24.0684 30.5397 24.2878 30.5976C22.4419 31.4918 20.4309 32.0121 18.3751 32.1273C16.3192 32.2426 14.2608 31.9504 12.3228 31.2684C10.3849 30.5863 8.6072 29.5283 7.09614 28.1576C5.58508 26.787 4.37166 25.1318 3.52844 23.2911H3.52625Z" fill="white"/>
</g>
<defs>
<clipPath id="clip0_235_125">
<rect width="35" height="34.2926" fill="white"/>
</clipPath>
</defs>
</svg>
