<svg width="32" height="38" viewBox="0 0 32 38" fill="none" xmlns="http://www.w3.org/2000/svg">
<path d="M4.57143 2.375C2.05 2.375 0 4.50508 0 7.125V30.875C0 33.4949 2.05 35.625 4.57143 35.625H27.4286C29.95 35.625 32 33.4949 32 30.875V7.125C32 4.50508 29.95 2.375 27.4286 2.375H4.57143ZM11.05 9.55195C11.7429 9.35898 12.4714 9.72266 12.7429 10.4129L14.1714 13.9754C14.4143 14.584 14.2429 15.2816 13.7571 15.6973L12 17.1965C13.1857 19.809 15.2214 21.9242 17.7357 23.1562L19.1786 21.323C19.5786 20.8184 20.25 20.6402 20.8357 20.8926L24.2643 22.377C24.9286 22.6664 25.2786 23.416 25.0929 24.1359L24.2357 27.4016C24.0643 28.0547 23.5 28.5 22.8571 28.5C14.0214 28.5 6.85714 21.0559 6.85714 11.875C6.85714 11.207 7.28571 10.6207 7.90714 10.4426L11.05 9.55195Z" fill="white"/>
</svg>
